<svg width="255" height="260" fill="none" xmlns="http://www.w3.org/2000/svg"><path d="m147.669 46.376 75.761-14.462-14.172 77.609-.313 1.713.819 1.536 36.965 69.39-76.515 10.195-1.785.238-1.224 1.321-52.927 57.176-33.077-71.143-.75-1.612-1.598-.777-69.766-33.907 56.136-54.322 1.261-1.22.222-1.741 9.967-78.197 67.626 37.66 1.587.883 1.783-.34Z" fill="#93A1AD" stroke="#000" stroke-width="10"/><path d="M65.518 143.58v-38.5h20.46v5.06H70.633v9.57h10.23l-1.155 5.115h-9.075v13.64h15.345v5.115h-20.46Zm30.31 0v-27.5h21.835c1.1 0 2.035.403 2.805 1.21.77.77 1.155 1.705 1.155 2.805v23.485h-5.115v-20.35c0-.55-.202-1.008-.605-1.375a1.956 1.956 0 0 0-1.43-.605h-3.135v22.33h-5.17v-20.35c0-.55-.202-1.008-.605-1.375a1.956 1.956 0 0 0-1.43-.605h-3.135v22.33h-5.17Zm32.579 13.75v-41.25h11.495c1.136 0 2.09.385 2.86 1.155s1.155 1.723 1.155 2.86v19.47c0 1.137-.385 2.09-1.155 2.86s-1.724 1.155-2.86 1.155h-6.325v13.75h-5.17Zm5.17-18.92h3.19c.513 0 .971-.202 1.375-.605.403-.403.605-.862.605-1.375v-13.145c0-.623-.202-1.118-.605-1.485-.404-.367-.862-.55-1.375-.55h-3.19v17.16Zm20.447 5.17c-1.1 0-2.053-.385-2.86-1.155-.77-.77-1.155-1.723-1.155-2.86v-8.305c0-1.1.385-2.035 1.155-2.805.807-.807 1.76-1.21 2.86-1.21h4.29c.587 0 1.063-.183 1.43-.55.403-.403.605-.88.605-1.43v-2.035c0-.55-.202-1.008-.605-1.375-.367-.403-.843-.605-1.43-.605h-5.94l1.155-5.17h7.975c1.1 0 2.035.403 2.805 1.21.807.77 1.21 1.705 1.21 2.805v23.485h-11.495Zm3.135-5.17h3.19v-5.995h-3.19c-.55 0-1.027.202-1.43.605-.367.367-.55.825-.55 1.375v2.035c0 .55.183 1.027.55 1.43.403.367.88.55 1.43.55Zm14.453 5.17v-40.04l5.17-1.155v13.695h6.545l-1.21 5.17h-5.335v22.33h-5.17Zm20.139 0c-1.1 0-2.054-.385-2.86-1.155-.77-.807-1.155-1.76-1.155-2.86V120.04c0-1.1.385-2.035 1.155-2.805.806-.77 1.76-1.155 2.86-1.155h7.48c1.136 0 2.09.385 2.86 1.155s1.155 1.705 1.155 2.805v8.36c0 1.1-.385 2.053-1.155 2.86-.77.77-1.724 1.155-2.86 1.155h-6.325v4.015c0 .55.183 1.027.55 1.43.403.367.898.55 1.485.55h7.15l1.155 5.17h-11.495Zm1.155-16.335h3.19c.55 0 1.008-.183 1.375-.55.403-.403.605-.88.605-1.43v-2.035c0-.55-.202-1.008-.605-1.375a1.783 1.783 0 0 0-1.375-.605h-1.155a2.02 2.02 0 0 0-1.485.605c-.367.367-.55.825-.55 1.375v4.015Z" fill="#fff"/></svg>