<svg version="1.1" id="Layer_1" xmlns="http://www.w3.org/2000/svg" xmlns:xlink="http://www.w3.org/1999/xlink" x="0px" y="0px" width="100%" viewBox="0 0 363 362" enable-background="new 0 0 363 362" xml:space="preserve">
<path fill="#000000" opacity="1.000000" stroke="none" d="
M196.000000,363.000000 
	C130.689011,363.000000 65.878036,363.000000 1.033527,363.000000 
	C1.033527,242.397293 1.033527,121.794571 1.033527,1.095928 
	C121.894272,1.095928 242.788635,1.095928 363.841492,1.095928 
	C363.841492,121.666504 363.841492,242.333237 363.841492,363.000000 
	C308.127991,363.000000 252.313995,363.000000 196.000000,363.000000 
M323.846436,208.640137 
	C315.007629,192.440552 306.071594,176.292404 297.441956,159.982178 
	C296.241119,157.712570 295.809631,154.509521 296.272736,151.966339 
	C301.661926,122.371674 307.302521,92.822853 312.845215,63.256020 
	C313.679413,58.806007 314.353302,54.325947 315.145813,49.594517 
	C312.932312,49.832832 311.593292,49.886887 310.289673,50.130543 
	C277.613098,56.238010 244.948029,62.407696 212.249802,68.396454 
	C210.015472,68.805672 207.185272,68.539459 205.226242,67.484367 
	C178.739441,53.219280 152.362778,38.749790 125.945610,24.355211 
	C121.644363,22.011484 117.279221,19.785028 112.449295,17.244345 
	C111.426010,25.138035 110.516754,32.194561 109.595711,39.249550 
	C106.064484,66.297974 102.603798,93.356148 98.881004,120.378204 
	C98.508179,123.084396 97.145020,126.204865 95.211876,128.060455 
	C75.150505,147.316895 54.827957,166.300888 34.698967,185.487503 
	C29.692348,190.259750 25.121710,195.489365 20.330763,200.529678 
	C20.438444,200.597382 20.811235,200.887436 21.227732,201.085678 
	C52.140392,215.798553 83.071167,230.473633 113.937225,245.283554 
	C115.862396,246.207275 117.937645,247.865829 118.836861,249.719208 
	C128.556473,269.752319 138.050491,289.894806 147.613922,310.003723 
	C153.153152,321.651031 158.706558,333.291626 164.378815,345.198120 
	C165.244324,344.440887 165.772247,344.049408 166.217422,343.579468 
	C189.809860,318.676270 213.377869,293.749786 237.030106,268.903473 
	C238.287521,267.582581 240.164642,266.298584 241.897049,266.065369 
	C270.253204,262.247589 298.634369,258.616089 327.005280,254.907196 
	C333.662262,254.036926 340.302124,253.035965 347.498749,252.017441 
	C339.432648,237.284378 331.778595,223.303986 323.846436,208.640137 
z"></path>
<path fill="#999999" opacity="1.000000" stroke="none" d="
M323.985504,208.981873 
	C331.778595,223.303986 339.432648,237.284378 347.498749,252.017441 
	C340.302124,253.035965 333.662262,254.036926 327.005280,254.907196 
	C298.634369,258.616089 270.253204,262.247589 241.897049,266.065369 
	C240.164642,266.298584 238.287521,267.582581 237.030106,268.903473 
	C213.377869,293.749786 189.809860,318.676270 166.217422,343.579468 
	C165.772247,344.049408 165.244324,344.440887 164.378815,345.198120 
	C158.706558,333.291626 153.153152,321.651031 147.613922,310.003723 
	C138.050491,289.894806 128.556473,269.752319 118.836861,249.719208 
	C117.937645,247.865829 115.862396,246.207275 113.937225,245.283554 
	C83.071167,230.473633 52.140392,215.798553 21.227732,201.085678 
	C20.811235,200.887436 20.438444,200.597382 20.330763,200.529678 
	C25.121710,195.489365 29.692348,190.259750 34.698967,185.487503 
	C54.827957,166.300888 75.150505,147.316895 95.211876,128.060455 
	C97.145020,126.204865 98.508179,123.084396 98.881004,120.378204 
	C102.603798,93.356148 106.064484,66.297974 109.595711,39.249550 
	C110.516754,32.194561 111.426010,25.138035 112.449295,17.244345 
	C117.279221,19.785028 121.644363,22.011484 125.945610,24.355211 
	C152.362778,38.749790 178.739441,53.219280 205.226242,67.484367 
	C207.185272,68.539459 210.015472,68.805672 212.249802,68.396454 
	C244.948029,62.407696 277.613098,56.238010 310.289673,50.130543 
	C311.593292,49.886887 312.932312,49.832832 315.145813,49.594517 
	C314.353302,54.325947 313.679413,58.806007 312.845215,63.256020 
	C307.302521,92.822853 301.661926,122.371674 296.272736,151.966339 
	C295.809631,154.509521 296.241119,157.712570 297.441956,159.982178 
	C306.071594,176.292404 315.007629,192.440552 323.985504,208.981873 
M134.008499,192.006393 
	C134.008499,192.006393 133.889862,192.004807 134.731827,191.720078 
	C134.853745,189.584763 134.991409,187.450211 135.094543,185.313980 
	C135.371674,179.574203 135.634033,173.833694 136.578918,167.786758 
	C140.361145,165.903854 142.397308,167.719437 142.906052,171.283386 
	C142.652908,177.832108 142.366821,184.380142 142.232452,190.931290 
	C142.224792,191.304962 143.458267,191.704056 144.779999,192.413406 
	C147.510849,192.286224 150.241699,192.159042 153.835815,191.973785 
	C154.227234,189.555130 154.992004,187.128036 154.937424,184.719482 
	C154.795242,178.443817 154.293839,172.176285 153.901627,165.192703 
	C149.934204,156.928833 140.529968,154.147125 133.468964,163.318726 
	C130.135651,159.695526 126.459969,157.197556 121.003372,158.027802 
	C115.467499,158.870071 109.778801,158.707901 103.347038,159.338272 
	C103.241852,169.639206 103.115799,179.940063 103.085716,190.241211 
	C103.084000,190.830154 103.866364,191.421387 105.026993,192.086899 
	C107.819878,192.389267 110.612755,192.691620 114.258675,192.806351 
	C114.837440,191.217239 115.869621,189.641068 115.915367,188.036774 
	C116.099403,181.581665 115.978462,175.117844 116.445450,168.158325 
	C121.340828,166.316162 123.916374,168.138840 124.070824,173.847382 
	C124.231331,179.779510 124.133347,185.718613 123.644409,192.153030 
	C127.100342,192.064621 130.556274,191.976212 134.008499,192.006393 
M239.976517,183.662537 
	C240.962280,189.488800 244.541321,192.222244 250.302078,192.892563 
	C258.377930,193.832260 261.091827,191.524780 259.227234,184.980240 
	C257.434143,184.980240 255.535873,185.395172 253.964874,184.856186 
	C252.569977,184.377640 250.545883,182.865372 250.518250,181.766220 
	C250.399353,177.034561 250.913483,172.287003 251.193085,167.612137 
	C261.346222,165.849579 261.346222,165.849579 259.838226,159.517365 
	C256.731354,159.204834 253.551422,158.884964 250.340622,158.561996 
	C251.864502,149.401611 249.686905,147.841431 240.440231,149.816177 
	C238.886414,153.635101 237.049789,156.816803 236.437561,160.218872 
	C236.133972,161.905914 233.843063,165.311829 238.062531,167.102280 
	C238.055923,171.034195 237.900558,174.974579 238.123672,178.893417 
	C238.201401,180.258667 239.214127,181.570694 239.976517,183.662537 
M98.897743,176.075897 
	C97.523552,171.541245 97.352982,165.956665 94.512840,162.700790 
	C89.347809,156.779724 82.108772,156.683426 74.700035,159.544037 
	C62.249050,164.351578 63.247608,182.389160 71.082664,188.442032 
	C76.482788,192.613815 82.104256,193.656281 88.950233,192.231827 
	C97.567078,190.438889 98.508331,189.805618 95.901154,181.225632 
	C94.601974,181.976074 93.386238,182.698257 92.152290,183.387848 
	C85.149208,187.301346 77.837425,185.339966 76.881767,178.867599 
	C82.707390,178.820404 88.538673,178.900406 94.354904,178.641953 
	C95.926537,178.572128 97.452599,177.476852 98.897743,176.075897 
M230.673035,166.220078 
	C228.893127,163.931442 227.420593,160.055801 225.277802,159.640778 
	C217.738968,158.180649 209.908813,155.706741 202.399170,159.970139 
	C202.399170,162.376526 202.399170,164.754166 202.399170,167.327698 
	C208.467056,166.706497 214.352570,163.448746 219.980835,168.563034 
	C218.827240,169.225754 218.063354,169.880264 217.183990,170.133102 
	C212.966141,171.345795 208.557083,172.070419 204.549744,173.760071 
	C202.678665,174.549026 200.792313,176.924515 200.253220,178.939514 
	C198.754791,184.540176 200.619781,189.388535 204.922409,191.465134 
	C207.112198,192.522003 209.876877,193.095505 212.265228,192.831940 
	C214.602524,192.574020 216.791824,190.974976 219.170792,189.908707 
	C221.657379,194.783264 226.032211,191.295364 230.135056,192.275375 
	C230.753967,190.856934 231.930481,189.425507 231.897781,188.022278 
	C231.733398,180.968857 231.253174,173.922791 230.673035,166.220078 
M175.643738,191.157715 
	C183.615891,194.798538 190.264160,192.194427 192.955704,183.920837 
	C194.128525,180.315735 194.135544,176.347961 194.939865,172.602432 
	C196.109161,167.157379 193.072754,162.741989 189.771729,159.973404 
	C187.000397,157.649063 181.981247,156.174789 177.821060,159.475922 
	C177.256912,159.923584 176.247375,160.000153 175.463623,159.948990 
	C171.360153,159.681091 167.263016,159.316635 162.351273,159.334625 
	C162.244446,173.963165 162.122482,188.591660 162.084915,203.220383 
	C162.083374,203.819046 162.875412,204.419724 164.068146,204.648026 
	C166.846771,204.762283 169.625412,204.876556 173.255432,204.809738 
	C173.838318,203.431137 174.812744,202.083527 174.924744,200.667694 
	C175.178650,197.458389 175.007706,194.215454 175.643738,191.157715 
M270.799591,160.249847 
	C262.848480,165.563461 259.758087,174.848557 263.461426,182.297318 
	C268.258820,191.946625 281.901306,196.123306 291.533936,190.891769 
	C295.722076,188.617172 296.309540,185.497787 293.344025,181.280304 
	C279.188599,187.009537 273.498016,186.089157 274.530334,177.885208 
	C280.119873,177.885208 285.768738,177.687195 291.395721,177.952682 
	C295.348389,178.139191 296.553406,176.332809 295.963562,172.880447 
	C295.576874,170.616959 295.250946,168.149185 294.112762,166.241196 
	C288.887177,157.481262 280.320374,155.215576 270.799591,160.249847 
z"></path>
<path fill="#F9F9F9" opacity="1.000000" stroke="none" d="
M104.157028,158.985657 
	C109.778801,158.707901 115.467499,158.870071 121.003372,158.027802 
	C126.459969,157.197556 130.135651,159.695526 133.468964,163.318726 
	C140.529968,154.147125 149.934204,156.928833 153.595032,165.768860 
	C153.183136,174.907303 153.077835,183.469574 152.972549,192.031860 
	C150.241699,192.159042 147.510849,192.286224 144.432312,191.775467 
	C143.948700,184.470917 143.812775,177.804306 143.676849,171.137695 
	C142.397308,167.719437 140.361145,165.903854 135.812042,167.933685 
	C134.698456,169.557053 134.084457,171.027496 134.051208,172.510971 
	C133.905609,179.006851 133.928253,185.506516 133.889862,192.004807 
	C133.889862,192.004807 134.008499,192.006393 133.558838,191.917572 
	C130.122238,191.770721 127.135323,191.712708 124.148407,191.654663 
	C124.133347,185.718613 124.231331,179.779510 124.070824,173.847382 
	C123.916374,168.138840 121.340828,166.316162 115.853569,168.355408 
	C114.848030,169.888626 114.133987,171.210861 114.071327,172.563278 
	C113.755989,179.369186 113.610664,186.182968 113.405640,192.993988 
	C110.612755,192.691620 107.819878,192.389267 104.597603,191.582565 
	C104.164482,180.380707 104.160759,169.683182 104.157028,158.985657 
z"></path>
<path fill="#FAFAFA" opacity="1.000000" stroke="none" d="
M172.404053,204.990814 
	C169.625412,204.876556 166.846771,204.762283 163.685883,204.362793 
	C163.256958,189.046967 163.210312,174.016342 163.163666,158.985733 
	C167.263016,159.316635 171.360153,159.681091 175.463623,159.948990 
	C176.247375,160.000153 177.256912,159.923584 177.821060,159.475922 
	C181.981247,156.174789 187.000397,157.649063 189.771729,159.973404 
	C193.072754,162.741989 196.109161,167.157379 194.939865,172.602432 
	C194.135544,176.347961 194.128525,180.315735 192.955704,183.920837 
	C190.264160,192.194427 183.615891,194.798538 175.088028,190.784027 
	C174.023804,191.342850 173.157074,192.243103 173.069656,193.213562 
	C172.717056,197.127548 172.604950,201.063171 172.404053,204.990814 
M175.785507,183.947266 
	C179.368683,184.423096 182.262222,183.463699 183.975616,180.027191 
	C186.010178,175.946518 185.071976,171.964188 182.831833,168.499115 
	C180.986633,165.644958 177.905701,165.957016 174.225281,167.423630 
	C173.993988,172.881378 173.761139,178.339096 173.590012,183.798721 
	C173.589355,183.819397 174.477234,183.867905 175.785507,183.947266 
z"></path>
<path fill="#FBFBFB" opacity="1.000000" stroke="none" d="
M271.137665,160.103943 
	C280.320374,155.215576 288.887177,157.481262 294.112762,166.241196 
	C295.250946,168.149185 295.576874,170.616959 295.963562,172.880447 
	C296.553406,176.332809 295.348389,178.139191 291.395721,177.952682 
	C285.768738,177.687195 280.119873,177.885208 274.530334,177.885208 
	C273.498016,186.089157 279.188599,187.009537 293.344025,181.280304 
	C296.309540,185.497787 295.722076,188.617172 291.533936,190.891769 
	C281.901306,196.123306 268.258820,191.946625 263.461426,182.297318 
	C259.758087,174.848557 262.848480,165.563461 271.137665,160.103943 
M275.143463,166.441025 
	C274.352142,167.770355 273.560822,169.099686 272.468719,170.934280 
	C276.125824,170.934280 278.957886,171.095276 281.755157,170.853729 
	C282.848022,170.759369 283.862793,169.760315 284.913116,169.173309 
	C284.125702,167.811066 283.490936,165.438416 282.519867,165.291656 
	C280.328735,164.960571 277.971344,165.730179 275.143463,166.441025 
z"></path>
<path fill="#F9F9F9" opacity="1.000000" stroke="none" d="
M229.642105,191.763718 
	C226.032211,191.295364 221.657379,194.783264 219.170792,189.908707 
	C216.791824,190.974976 214.602524,192.574020 212.265228,192.831940 
	C209.876877,193.095505 207.112198,192.522003 204.922409,191.465134 
	C200.619781,189.388535 198.754791,184.540176 200.253220,178.939514 
	C200.792313,176.924515 202.678665,174.549026 204.549744,173.760071 
	C208.557083,172.070419 212.966141,171.345795 217.183990,170.133102 
	C218.063354,169.880264 218.827240,169.225754 219.980835,168.563034 
	C214.352570,163.448746 208.467056,166.706497 202.399170,167.327698 
	C202.399170,164.754166 202.399170,162.376526 202.399170,159.970139 
	C209.908813,155.706741 217.738968,158.180649 225.277802,159.640778 
	C227.420593,160.055801 228.893127,163.931442 230.417404,166.796417 
	C229.988556,175.503067 229.815323,183.633392 229.642105,191.763718 
M210.662811,181.481506 
	C210.695755,184.877487 212.723724,185.996078 215.690720,185.487152 
	C218.936172,184.930466 220.632492,182.788391 220.000885,179.483429 
	C219.343475,176.043472 216.710220,176.739487 214.599792,177.678970 
	C213.007843,178.387634 211.736740,179.817017 210.662811,181.481506 
z"></path>
<path fill="#FAFAFA" opacity="1.000000" stroke="none" d="
M75.951607,179.049179 
	C77.837425,185.339966 85.149208,187.301346 92.152290,183.387848 
	C93.386238,182.698257 94.601974,181.976074 95.901154,181.225632 
	C98.508331,189.805618 97.567078,190.438889 88.950233,192.231827 
	C82.104256,193.656281 76.482788,192.613815 71.082664,188.442032 
	C63.247608,182.389160 62.249050,164.351578 74.700035,159.544037 
	C82.108772,156.683426 89.347809,156.779724 94.512840,162.700790 
	C97.352982,165.956665 97.523552,171.541245 98.479889,176.474762 
	C91.621986,176.915039 85.179169,176.873383 78.744926,177.088455 
	C77.793045,177.120270 76.881706,178.365402 75.951607,179.049179 
M86.434891,166.864182 
	C81.901306,163.523422 79.721275,164.148941 74.814743,170.938599 
	C78.406937,170.938599 81.354637,171.196991 84.223206,170.832550 
	C85.718460,170.642578 88.873535,170.744675 86.434891,166.864182 
z"></path>
<path fill="#F9F9F9" opacity="1.000000" stroke="none" d="
M238.087021,166.193329 
	C233.843063,165.311829 236.133972,161.905914 236.437561,160.218872 
	C237.049789,156.816803 238.886414,153.635101 240.440231,149.816177 
	C249.686905,147.841431 251.864502,149.401611 250.340622,158.561996 
	C253.551422,158.884964 256.731354,159.204834 259.838226,159.517365 
	C261.346222,165.849579 261.346222,165.849579 251.193085,167.612137 
	C250.913483,172.287003 250.399353,177.034561 250.518250,181.766220 
	C250.545883,182.865372 252.569977,184.377640 253.964874,184.856186 
	C255.535873,185.395172 257.434143,184.980240 259.227234,184.980240 
	C261.091827,191.524780 258.377930,193.832260 250.302078,192.892563 
	C244.541321,192.222244 240.962280,189.488800 239.971756,182.829849 
	C239.980270,177.537750 240.090897,173.074615 239.919861,168.622284 
	C239.887909,167.790390 238.726959,167.001862 238.087021,166.193329 
z"></path>
<path fill="#5F5F5F" opacity="1.000000" stroke="none" d="
M229.888580,192.019547 
	C229.815323,183.633392 229.988556,175.503067 230.522812,167.123444 
	C231.253174,173.922791 231.733398,180.968857 231.897781,188.022278 
	C231.930481,189.425507 230.753967,190.856934 229.888580,192.019547 
z"></path>
<path fill="#606060" opacity="1.000000" stroke="none" d="
M113.832153,192.900177 
	C113.610664,186.182968 113.755989,179.369186 114.071327,172.563278 
	C114.133987,171.210861 114.848030,169.888626 115.615952,168.604858 
	C115.978462,175.117844 116.099403,181.581665 115.915367,188.036774 
	C115.869621,189.641068 114.837440,191.217239 113.832153,192.900177 
z"></path>
<path fill="#454545" opacity="1.000000" stroke="none" d="
M76.416687,178.958389 
	C76.881706,178.365402 77.793045,177.120270 78.744926,177.088455 
	C85.179169,176.873383 91.621986,176.915039 98.530807,176.862946 
	C97.452599,177.476852 95.926537,178.572128 94.354904,178.641953 
	C88.538673,178.900406 82.707390,178.820404 76.416687,178.958389 
z"></path>
<path fill="#131313" opacity="1.000000" stroke="none" d="
M162.757477,159.160187 
	C163.210312,174.016342 163.256958,189.046967 163.300659,204.548523 
	C162.875412,204.419724 162.083374,203.819046 162.084915,203.220383 
	C162.122482,188.591660 162.244446,173.963165 162.757477,159.160187 
z"></path>
<path fill="#666666" opacity="1.000000" stroke="none" d="
M143.291443,171.210541 
	C143.812775,177.804306 143.948700,184.470917 144.099365,191.614426 
	C143.458267,191.704056 142.224792,191.304962 142.232452,190.931290 
	C142.366821,184.380142 142.652908,177.832108 143.291443,171.210541 
z"></path>
<path fill="#696969" opacity="1.000000" stroke="none" d="
M238.074768,166.647797 
	C238.726959,167.001862 239.887909,167.790390 239.919861,168.622284 
	C240.090897,173.074615 239.980270,177.537750 239.883408,182.452087 
	C239.214127,181.570694 238.201401,180.258667 238.123672,178.893417 
	C237.900558,174.974579 238.055923,171.034195 238.074768,166.647797 
z"></path>
<path fill="#131313" opacity="1.000000" stroke="none" d="
M103.752029,159.161957 
	C104.160759,169.683182 104.164482,180.380707 104.226013,191.544891 
	C103.866364,191.421387 103.084000,190.830154 103.085716,190.241211 
	C103.115799,179.940063 103.241852,169.639206 103.752029,159.161957 
z"></path>
<path fill="#2A2A2A" opacity="1.000000" stroke="none" d="
M153.404175,192.002823 
	C153.077835,183.469574 153.183136,174.907303 153.612061,166.125275 
	C154.293839,172.176285 154.795242,178.443817 154.937424,184.719482 
	C154.992004,187.128036 154.227234,189.555130 153.404175,192.002823 
z"></path>
<path fill="#636363" opacity="1.000000" stroke="none" d="
M172.829742,204.900269 
	C172.604950,201.063171 172.717056,197.127548 173.069656,193.213562 
	C173.157074,192.243103 174.023804,191.342850 174.770905,190.698273 
	C175.007706,194.215454 175.178650,197.458389 174.924744,200.667694 
	C174.812744,202.083527 173.838318,203.431137 172.829742,204.900269 
z"></path>
<path fill="#242424" opacity="1.000000" stroke="none" d="
M134.310852,191.862442 
	C133.928253,185.506516 133.905609,179.006851 134.051208,172.510971 
	C134.084457,171.027496 134.698456,169.557053 135.473724,168.087036 
	C135.634033,173.833694 135.371674,179.574203 135.094543,185.313980 
	C134.991409,187.450211 134.853745,189.584763 134.310852,191.862442 
z"></path>
<path fill="#242424" opacity="1.000000" stroke="none" d="
M123.896408,191.903854 
	C127.135323,191.712708 130.122238,191.770721 133.560684,191.858276 
	C130.556274,191.976212 127.100342,192.064621 123.896408,191.903854 
z"></path>
<path fill="#969696" opacity="1.000000" stroke="none" d="
M175.020248,167.284943 
	C177.905701,165.957016 180.986633,165.644958 182.831833,168.499115 
	C185.071976,171.964188 186.010178,175.946518 183.975616,180.027191 
	C182.262222,183.463699 179.368683,184.423096 175.384293,183.464813 
	C174.995468,177.749878 175.007858,172.517410 175.020248,167.284943 
z"></path>
<path fill="#646464" opacity="1.000000" stroke="none" d="
M174.622772,167.354279 
	C175.007858,172.517410 174.995468,177.749878 174.966614,183.442871 
	C174.477234,183.867905 173.589355,183.819397 173.590012,183.798721 
	C173.761139,178.339096 173.993988,172.881378 174.622772,167.354279 
z"></path>
<path fill="#8F8F8F" opacity="1.000000" stroke="none" d="
M275.412537,166.246490 
	C277.971344,165.730179 280.328735,164.960571 282.519867,165.291656 
	C283.490936,165.438416 284.125702,167.811066 284.913116,169.173309 
	C283.862793,169.760315 282.848022,170.759369 281.755157,170.853729 
	C278.957886,171.095276 276.125824,170.934280 272.468719,170.934280 
	C273.560822,169.099686 274.352142,167.770355 275.412537,166.246490 
z"></path>
<path fill="#959595" opacity="1.000000" stroke="none" d="
M210.492813,181.203552 
	C211.736740,179.817017 213.007843,178.387634 214.599792,177.678970 
	C216.710220,176.739487 219.343475,176.043472 220.000885,179.483429 
	C220.632492,182.788391 218.936172,184.930466 215.690720,185.487152 
	C212.723724,185.996078 210.695755,184.877487 210.492813,181.203552 
z"></path>
<path fill="#969696" opacity="1.000000" stroke="none" d="
M86.705414,167.127930 
	C88.873535,170.744675 85.718460,170.642578 84.223206,170.832550 
	C81.354637,171.196991 78.406937,170.938599 74.814743,170.938599 
	C79.721275,164.148941 81.901306,163.523422 86.705414,167.127930 
z"></path>
</svg>