<svg width="255" height="260" viewBox="0 0 255 260" fill="none" xmlns="http://www.w3.org/2000/svg">
<path d="M147.669 46.3756L223.43 31.9138L209.258 109.523L208.945 111.236L209.764 112.772L246.729 182.162L170.214 192.357L168.429 192.595L167.205 193.916L114.278 251.092L81.2013 179.949L80.4518 178.337L78.853 177.56L9.08746 143.653L65.2234 89.3307L66.4844 88.1105L66.7063 86.3698L76.6729 8.1731L144.299 45.8326L145.886 46.7161L147.669 46.3756Z" fill="#93A1AD" stroke="black" stroke-width="10"/>
<path d="M65.5179 143.58V105.08H85.9779V110.14H70.6329V119.71H80.8629L79.7079 124.825H70.6329V138.465H85.9779V143.58H65.5179ZM95.8281 143.58V116.08H117.663C118.763 116.08 119.698 116.483 120.468 117.29C121.238 118.06 121.623 118.995 121.623 120.095V143.58H116.508V123.23C116.508 122.68 116.306 122.222 115.903 121.855C115.5 121.452 115.023 121.25 114.473 121.25H111.338V143.58H106.168V123.23C106.168 122.68 105.966 122.222 105.563 121.855C105.16 121.452 104.683 121.25 104.133 121.25H100.998V143.58H95.8281ZM128.407 157.33V116.08H139.902C141.038 116.08 141.992 116.465 142.762 117.235C143.532 118.005 143.917 118.958 143.917 120.095V139.565C143.917 140.702 143.532 141.655 142.762 142.425C141.992 143.195 141.038 143.58 139.902 143.58H133.577V157.33H128.407ZM133.577 138.41H136.767C137.28 138.41 137.738 138.208 138.142 137.805C138.545 137.402 138.747 136.943 138.747 136.43V123.285C138.747 122.662 138.545 122.167 138.142 121.8C137.738 121.433 137.28 121.25 136.767 121.25H133.577V138.41ZM154.024 143.58C152.924 143.58 151.971 143.195 151.164 142.425C150.394 141.655 150.009 140.702 150.009 139.565V131.26C150.009 130.16 150.394 129.225 151.164 128.455C151.971 127.648 152.924 127.245 154.024 127.245H158.314C158.901 127.245 159.377 127.062 159.744 126.695C160.147 126.292 160.349 125.815 160.349 125.265V123.23C160.349 122.68 160.147 122.222 159.744 121.855C159.377 121.452 158.901 121.25 158.314 121.25H152.374L153.529 116.08H161.504C162.604 116.08 163.539 116.483 164.309 117.29C165.116 118.06 165.519 118.995 165.519 120.095V143.58H154.024ZM157.159 138.41H160.349V132.415H157.159C156.609 132.415 156.132 132.617 155.729 133.02C155.362 133.387 155.179 133.845 155.179 134.395V136.43C155.179 136.98 155.362 137.457 155.729 137.86C156.132 138.227 156.609 138.41 157.159 138.41ZM171.612 143.58V103.54L176.782 102.385V116.08H183.327L182.117 121.25H176.782V143.58H171.612ZM191.751 143.58C190.651 143.58 189.697 143.195 188.891 142.425C188.121 141.618 187.736 140.665 187.736 139.565V120.04C187.736 118.94 188.121 118.005 188.891 117.235C189.697 116.465 190.651 116.08 191.751 116.08H199.231C200.367 116.08 201.321 116.465 202.091 117.235C202.861 118.005 203.246 118.94 203.246 120.04V128.4C203.246 129.5 202.861 130.453 202.091 131.26C201.321 132.03 200.367 132.415 199.231 132.415H192.906V136.43C192.906 136.98 193.089 137.457 193.456 137.86C193.859 138.227 194.354 138.41 194.941 138.41H202.091L203.246 143.58H191.751ZM192.906 127.245H196.096C196.646 127.245 197.104 127.062 197.471 126.695C197.874 126.292 198.076 125.815 198.076 125.265V123.23C198.076 122.68 197.874 122.222 197.471 121.855C197.104 121.452 196.646 121.25 196.096 121.25H194.941C194.354 121.25 193.859 121.452 193.456 121.855C193.089 122.222 192.906 122.68 192.906 123.23V127.245Z" fill="white"/>
</svg>
