<svg width="244" height="243" fill="none" xmlns="http://www.w3.org/2000/svg"><path d="m118.936 113.5 9.9-10.9h-14.3c-2.866 0-4.3.833-4.3 2.5 0 .6.134 1.5.4 2.7.267 1.133.4 2 .4 2.6 0 5.667-2.633 8.5-7.9 8.5-2.2 0-4-.667-5.4-2-1.4-1.4-2.1-3.2-2.1-5.4 0-1.067.167-2.7.5-4.9.4-2.2.6-3.833.6-4.9 0-.933-.133-2.267-.4-4-.266-1.8-.4-3.133-.4-4 0-3.2 1.867-4.8 5.6-4.8h.6c4 .133 8.2.2 12.6.2l29.1-.2c2.134 0 3.6.467 4.4 1.4.8.867 1.2 2.5 1.2 4.9 0 3.467-1.233 6.5-3.7 9.1l-11.6 12.1c5.067.533 9 2.4 11.8 5.6 2.867 3.133 4.3 7.267 4.3 12.4 0 7.067-2.733 12.733-8.2 17-5.466 4.267-12.733 6.4-21.8 6.4-7.866 0-14.266-1.8-19.2-5.4-4.933-3.6-7.4-8.267-7.4-14 0-3.2 1-5.9 3-8.1 2-2.2 4.467-3.3 7.4-3.3 2.534 0 4.7.867 6.5 2.6 1.867 1.667 2.8 3.733 2.8 6.2 0 2.067-.833 4.067-2.5 6 1.667 1.267 3.034 2.1 4.1 2.5 1.134.333 2.767.5 4.9.5 3.8 0 6.9-.933 9.3-2.8 2.4-1.867 3.6-4.267 3.6-7.2 0-5.667-4.2-8.633-12.6-8.9-3.066-.133-4.6-1.733-4.6-4.8 0-2.6 1.134-5.133 3.4-7.6Z" fill="#000"/><circle cx="121.5" cy="121.5" r="110" stroke="#000" stroke-width="23"/><path d="M232 122c0 60.199-49.249 109-110 109s-95-44.5-103-70.5" stroke="#F1F1F1" stroke-width="23"/></svg>