<svg width="255" height="260" fill="none" xmlns="http://www.w3.org/2000/svg"><path d="m147.669 46.376 75.761-14.462-14.172 77.609-.313 1.713.819 1.536 36.965 69.39-76.515 10.195-1.785.238-1.224 1.321-52.927 57.176-33.077-71.143-.75-1.612-1.598-.777-69.766-33.907 56.136-54.322 1.261-1.22.222-1.741 9.967-78.197 67.626 37.66 1.587.883 1.783-.34Z" fill="#DC5B49" stroke="#000" stroke-width="10"/><path d="M57.225 143.58v-38.5h16.5c1.064 0 1.98.385 2.75 1.155.807.77 1.21 1.705 1.21 2.805v11.825c0 1.1-.403 2.035-1.21 2.805-.77.77-1.686 1.155-2.75 1.155H62.34v18.755h-5.115Zm5.115-23.87h8.25c.55 0 1.009-.183 1.375-.55.404-.403.605-.88.605-1.43v-5.61c0-.513-.201-.953-.605-1.32a1.782 1.782 0 0 0-1.375-.605h-8.25v9.515Zm26.06 23.87c-1.1 0-2.053-.385-2.86-1.155-.77-.807-1.155-1.76-1.155-2.86V120.04c0-1.1.385-2.035 1.155-2.805.807-.77 1.76-1.155 2.86-1.155h7.48c1.137 0 2.09.385 2.86 1.155s1.156 1.705 1.156 2.805v8.36c0 1.1-.386 2.053-1.156 2.86-.77.77-1.723 1.155-2.86 1.155h-6.325v4.015c0 .55.184 1.027.55 1.43.404.367.899.55 1.486.55h7.15l1.154 5.17H88.4Zm1.155-16.335h3.19c.55 0 1.009-.183 1.376-.55.403-.403.605-.88.605-1.43v-2.035c0-.55-.202-1.008-.605-1.375a1.782 1.782 0 0 0-1.375-.605H91.59a2.02 2.02 0 0 0-1.485.605c-.367.367-.55.825-.55 1.375v4.015Zm15.842 16.335v-27.5h11.495c1.1 0 2.035.403 2.805 1.21.807.77 1.21 1.705 1.21 2.805v5.995l-5.17-1.155v-1.65c0-.55-.201-1.027-.605-1.43a1.781 1.781 0 0 0-1.375-.605h-3.19v22.33h-5.17Zm24.49 0c-1.137 0-2.09-.385-2.86-1.155s-1.155-1.723-1.155-2.86v-19.47c0-1.137.385-2.09 1.155-2.86s1.723-1.155 2.86-1.155h6.325v-12.54l5.17-1.21v41.25h-11.495Zm3.135-5.17h3.19v-17.16h-3.19c-.513 0-.972.183-1.375.55-.403.367-.605.843-.605 1.43v13.2c0 .513.202.972.605 1.375.403.403.862.605 1.375.605Zm14.452-29.7v-5.17l5.17-1.21v5.17l-5.17 1.21Zm.11 34.87v-26.29l5.17-1.21v27.5h-5.17Zm15.731 0c-1.1 0-2.035-.385-2.805-1.155-.77-.807-1.155-1.76-1.155-2.86V135h5.115v1.43c0 .55.202 1.027.605 1.43.404.367.88.55 1.43.55h1.155c.55 0 1.009-.183 1.375-.55.404-.403.605-.88.605-1.43v-2.035a1.78 1.78 0 0 0-.605-1.375 1.781 1.781 0 0 0-1.375-.605h-4.345c-1.1 0-2.035-.385-2.805-1.155-.77-.807-1.155-1.76-1.155-2.86v-8.305c0-1.1.385-2.035 1.155-2.805.77-.807 1.705-1.21 2.805-1.21h7.535c1.1 0 2.035.403 2.805 1.21.77.77 1.155 1.705 1.155 2.805v4.565h-5.17v-1.43a1.78 1.78 0 0 0-.605-1.375 1.781 1.781 0 0 0-1.375-.605h-1.155c-.55 0-1.026.202-1.43.605a1.783 1.783 0 0 0-.605 1.375v2.035c0 .55.202 1.027.605 1.43.404.367.88.55 1.43.55h4.345c1.1 0 2.035.403 2.805 1.21.77.77 1.155 1.705 1.155 2.805v8.525c-.036 1.027-.44 1.925-1.21 2.695a3.85 3.85 0 0 1-2.75 1.1h-7.535Zm17.589 0v-40.04l5.17-1.155v13.695h6.545l-1.21 5.17h-5.335v22.33h-5.17Zm20.139 0c-1.1 0-2.053-.385-2.86-1.155-.77-.807-1.155-1.76-1.155-2.86V120.04c0-1.1.385-2.035 1.155-2.805.807-.77 1.76-1.155 2.86-1.155h7.48c1.137 0 2.09.385 2.86 1.155s1.155 1.705 1.155 2.805v8.36c0 1.1-.385 2.053-1.155 2.86-.77.77-1.723 1.155-2.86 1.155h-6.325v4.015c0 .55.183 1.027.55 1.43.403.367.898.55 1.485.55h7.15l1.155 5.17h-11.495Zm1.155-16.335h3.19c.55 0 1.008-.183 1.375-.55.403-.403.605-.88.605-1.43v-2.035c0-.55-.202-1.008-.605-1.375a1.783 1.783 0 0 0-1.375-.605h-1.155a2.02 2.02 0 0 0-1.485.605c-.367.367-.55.825-.55 1.375v4.015Z" fill="#fff"/></svg>